<svg version="1.2" xmlns="http://www.w3.org/2000/svg" viewBox="0 0 1139 145" width="1139" height="145">
	<title>Лого ShaddersAgent</title>
	<style>
		.s0 { fill: #ffffff } 
		.s1 { fill: #78bfbb } 
	</style>
	<g>
		<path class="s0" d="m72.4 22h-31.2c-4 0-7.4 0.7-10.1 2-2.7 1.3-4.1 3.5-4.1 6.4 0 2.9 0.5 2.8 1.5 3.8 1 1 2.3 1.9 4 2.6 1.7 0.7 3.6 1.3 5.8 1.8 2.2 0.5 4.6 1 7.1 1.5 3.6 0.7 7.2 1.5 11 2.5 3.8 1 7.2 2.2 10.3 3.9 3.1 1.7 5.6 3.9 7.6 6.6 2 2.7 3 6.2 3 10.6 0 4.4-0.9 7.3-2.7 10.1-1.8 2.8-4.2 5.1-7.3 6.8q-4.5 2.7-10.5 3.9c-4 0.8-8.2 1.3-12.5 1.3h-35.1v-13.9h36.8c2.1 0 4-0.2 5.7-0.5 1.7-0.3 3.3-0.8 4.6-1.4 1.3-0.6 2.4-1.4 3.1-2.4 0.7-1 1.1-2.2 1.1-3.6 0-1.4-0.5-2.9-1.5-4-1-1.1-2.4-2-4.1-2.8-1.7-0.8-3.7-1.4-6-1.9-2.3-0.5-4.6-1.1-7.2-1.6-3.6-0.8-7.2-1.6-10.9-2.6-3.7-1-7.1-2.3-10.1-4q-4.6-2.5-7.5-6.6c-2-2.7-2.9-6.2-2.9-10.4 0-4.2 0.8-7.1 2.5-9.9 1.6-2.8 3.8-5 6.6-6.8q4.2-2.7 9.6-3.9c3.6-0.8 7.4-1.3 11.3-1.4h32.2v13.9z"/>
		<path class="s0" d="m163.1 83.3h-15.1v-30.1h-41.5v30.1h-15.1v-73.1h15.1v30.1h41.5v-30.1h15.1z"/>
		<path class="s0" d="m224 9.1l33.6 74.2h-16.1l-5-11h-31.4l6-13h19.5l-14.7-32.2-25.6 56.1h-16.1l33.6-74.2h16.2z"/>
		<path class="s0" d="m309.4 10.2c5.7 0.2 10.8 1.4 15.2 3.5 4.4 2.1 8.1 4.9 11.1 8.3 3 3.4 5.3 7.3 6.8 11.6 1.5 4.3 2.3 8.7 2.3 13.2 0 4.5-0.8 8.9-2.3 13.2-1.5 4.3-3.8 8.1-6.8 11.5-3 3.4-6.7 6.2-11.1 8.3-4.4 2.1-9.5 3.3-15.2 3.5h-40v-73.1zm-24.8 60.1h24.3c3.3 0 6.3-0.7 8.8-2 2.5-1.4 4.6-3.1 6.3-5.3 1.7-2.2 2.9-4.7 3.8-7.5 0.8-2.8 1.3-5.7 1.3-8.6 0-2.9-0.4-5.8-1.3-8.7-0.8-2.9-2.1-5.4-3.8-7.6-1.7-2.2-3.8-4-6.3-5.3-2.5-1.4-5.4-2-8.8-2h-24.3v47.2z"/>
		<path class="s0" d="m398.7 10.2c5.7 0.2 10.8 1.4 15.2 3.5 4.4 2.1 8.1 4.9 11.1 8.3 3 3.4 5.3 7.3 6.8 11.6 1.5 4.3 2.3 8.7 2.3 13.2 0 4.5-0.8 8.9-2.3 13.2-1.5 4.3-3.8 8.1-6.8 11.5-3 3.4-6.7 6.2-11.1 8.3-4.4 2.1-9.5 3.3-15.2 3.5h-40v-73.1zm-24.8 60.1h24.3c3.3 0 6.3-0.7 8.8-2 2.5-1.4 4.6-3.1 6.3-5.3 1.7-2.2 2.9-4.7 3.8-7.5 0.8-2.8 1.3-5.7 1.3-8.6 0-2.9-0.4-5.8-1.3-8.7-0.8-2.9-2.1-5.4-3.8-7.6-1.7-2.2-3.8-4-6.3-5.3-2.5-1.4-5.4-2-8.8-2h-24.3v47.2z"/>
		<path class="s0" d="m511.7 10.2v13h-32.8c-3.3 0-6.3 0.7-8.8 2-2.5 1.3-4.6 3.1-6.3 5.3-1.7 2.2-2.9 4.7-3.8 7.6-0.8 2.9-1.3 5.7-1.3 8.7 0 3 0.4 5.8 1.3 8.6 0.8 2.8 2.1 5.3 3.7 7.6 1.6 2.2 3.7 4 6.1 5.4 2.4 1.4 5.3 2 8.6 2h33.2v13h-33.3c-5.8-0.2-10.9-1.4-15.2-3.5-4.4-2.1-8.1-4.9-11.1-8.3-3-3.4-5.3-7.3-6.8-11.5-1.5-4.3-2.3-8.7-2.3-13.2 0-4.5 0.8-8.8 2.3-13.2 1.5-4.3 3.8-8.2 6.8-11.6 3-3.4 6.7-6.2 11.1-8.3 4.4-2.1 9.5-3.3 15.2-3.5h33.4zm-38.5 43v-13h30.5v13z"/>
		<path class="s0" d="m527.7 10.2h42.1c3.6 0 6.8 0.8 9.7 2.1 2.8 1.3 5.2 3 7.1 5.1 1.9 2.1 3.3 4.5 4.3 7.1 1 2.6 1.5 5.4 1.5 8.1 0 2.7-0.3 4.4-0.9 6.6-0.6 2.2-1.6 4.2-2.8 6.1-1.3 1.9-2.8 3.6-4.7 5.2-1.9 1.6-4.1 2.8-6.6 3.7h-0.2c1.9 2.9 3.8 5.7 5.7 8.5 1.9 2.7 4 5.4 6.2 8 5.8 7.3 12.2 14.2 19.3 20.8 7.1 6.5 14.6 12.3 22.7 17.2 8.1 4.9 16.6 8.9 25.6 11.8 9 2.9 18.3 4.3 28 4.3 9.7 0 12.4-0.8 18.2-2.5 5.8-1.6 11.3-3.9 16.5-6.8 5.2-2.9 10-6.4 14.6-10.4 4.5-4 8.7-8.4 12.4-13.1l10.4 10c-4.5 5.6-9.3 10.8-14.6 15.4-5.3 4.6-10.9 8.5-16.9 11.8-6 3.3-12.4 5.8-19.1 7.6-6.8 1.8-13.8 2.7-21.2 2.7-10.9 0-21.4-1.6-31.5-4.7-10.1-3.1-19.6-7.4-28.7-12.8-9.1-5.4-17.5-11.8-25.4-19-7.9-7.2-15.1-15-21.7-23.2-6.3-7.7-12-15.9-17.2-24.5h-17.4v28.2h-15.1v-73.1zm15.2 31.9h22.7c1.8 0 3.4-0.3 4.8-0.8 1.4-0.5 2.5-1.2 3.4-2.2 0.9-0.9 1.5-1.9 2-3.1 0.5-1.1 0.7-2.3 0.7-3.5 0-1.2-0.2-2.4-0.7-3.5-0.5-1.1-1.1-2.1-2-3.1-0.9-0.9-2-1.6-3.4-2.2-1.4-0.6-3-0.8-4.8-0.8h-22.7z"/>
		<path class="s0" d="m668.2 22h-31.2c-2 0-3.9 0.2-5.6 0.5q-2.6 0.5-4.5 1.5-2 1.1-3 2.7c-0.7 1.1-1.1 2.4-1.1 3.8 0 1.4 0.5 2.8 1.5 3.8 1 1 2.3 1.9 4 2.6 1.7 0.7 3.6 1.3 5.8 1.8 2.2 0.5 4.6 1 7.1 1.5 3.6 0.7 7.2 1.5 11 2.4 3.8 0.9 7.2 2.2 10.3 3.9 3.1 1.7 5.6 3.9 7.6 6.6 2 2.7 3 6.2 3 10.6 0 4.4-0.9 7.3-2.7 10.1-1.8 2.8-4.2 5.1-7.3 6.8q-4.5 2.7-10.5 3.9c-4 0.8-8.2 1.3-12.5 1.3h-35.1v-13.9h36.8c2.1 0 4-0.2 5.7-0.5 1.7-0.3 3.3-0.8 4.6-1.4 1.3-0.6 2.4-1.4 3.1-2.4 0.7-1 1.1-2.2 1.1-3.6 0-1.4-0.5-2.9-1.5-4-1-1.1-2.4-2-4.1-2.8-1.7-0.8-3.7-1.4-6-1.9-2.3-0.5-4.6-1.1-7.2-1.6-3.6-0.8-7.2-1.6-10.9-2.6-3.7-1-7.1-2.3-10.1-4q-4.7-2.5-7.5-6.6c-2-2.7-2.9-6.2-2.9-10.4 0-4.2 0.8-7.1 2.5-9.9 1.6-2.8 3.8-5 6.6-6.8q4.2-2.7 9.6-3.9c3.6-0.8 7.4-1.3 11.3-1.4h32.2v13.9z"/>
	</g>
	<g>
		<path class="s1" d="m783.6 12.2c7.7 0 12.7 2.3 14.9 6.9l0.4 2.6v0.6c0 3.1-2.7 9-8.2 17.9-16.1 28.2-24.4 42.6-25 43.2h-19.9l9.7-17.7h-30.6c-0.6 0.6-4 6.5-10.1 17.7l-0.2 0.2h-20.3v-0.2q29.5-52 32.4-56.1c5.5-6 9.9-9.7 13.2-11 4.1-2.3 8.5-3.6 12.9-3.9l30.9-0.2zm-28.7 0.2h30c6.9 0 11.5 2.6 13.6 7.8l0.2 1.7c0 3.3-3.5 10.5-10.4 21.6-6.8 12.3-14.5 25.5-22.9 39.7l-0.9 0.2h-18.3l-0.4-0.4 9.5-16.6v-0.6h-30.9c-0.5 0.5-3.9 6.4-10.1 17.7l-1.1 0.2h-18.6l-0.2-0.2h-0.2c19.6-34.6 30.3-53.1 31.9-55.5 8.6-10.4 18.1-15.5 28.7-15.5h0.1zm-20.5 36h27.2q4.5 0 4.5-1.5 6.9-10.2 6.9-12.3v-1.7c-0.8-1.7-2.9-2.6-6.3-2.6h-12.3c-8.2 0-14.9 6-20.1 18.1zm0.5-0.2h30.6c5.2-8.1 7.8-12.6 7.8-13.6v-0.9c0-2.3-2.4-3.5-7.3-3.5h-10.1q-12 0-18.3 13.2c-1.7 2.8-2.6 4.4-2.6 4.7h-0.1z"/>
		<path class="s1" d="m831.5 12.4h61.1v0.4l-29.4 17.7h-31.7c-7.2 0-13.6 5.4-19 16.2-4.9 7.4-7.3 12.5-7.3 15.3 0 2.8 2.2 3.7 6.5 3.7h20.7l5.6-9.9v-0.2h-30.2v-0.2l24-14h34.7q0 1-23.7 42.3h-52.7c-5.4 0-9-1.7-10.8-5-0.6-1-0.9-2.2-0.9-3.5v-1.1c0-3.8 3.2-10.5 9.5-20.3 7.7-14 13.3-23.4 16.8-28.3 4.7-5.9 11.8-10.1 21.1-12.5l5.6-0.6z"/>
		<path class="s1" d="m894 12.2h81.1v0.4l-29.6 17.7h-41.2q-2.1 2.8-6.3 10.8h28.5v0.4l-24.4 14h-12.7l-5.6 10.1h61.5l0.2 0.2h0.2c-6.5 11.6-10 17.5-10.4 17.7h-81.6l-0.2-0.2h-0.2c26.5-46.9 40-70.6 40.6-71.2h0.1z"/>
		<path class="s1" d="m975.2 12.2h50.3q10.1 0 12.9 6.9l0.4 2.4q0 4.9-9.3 20.1c-14.1 25.2-22.1 39.2-24 42.1h-19.9l-0.4-0.4 26.3-46.2q0.9-2.7 0.9-3.9c0-2-2.2-3-6.7-3h-20.5c-0.6 0.6-5.8 9.5-15.3 26.5l-15.5 26.8h-20.1v-0.2c22.7-39.8 36.3-63.5 40.8-71z"/>
		<path class="s1" d="m1061.5 11.8h68.4v0.4l-29.6 18.1h-18.8l-30.6 53.3h-20.1l-0.4-0.4 30.6-53.1h-29.1v-0.4z"/>
	</g>
</svg>